<svg viewBox="0 0 24 24" fill="none" xmlns="http://www.w3.org/2000/svg">
    <defs>
        <linearGradient id="fluxGrad" x1="0%" y1="0%" x2="100%" y2="100%">
            <stop offset="0%" stop-color="#0ea5e9" />
            <stop offset="100%" stop-color="#6366f1" />
        </linearGradient>
    </defs>
    <path d="M12.22 2h-.44a2 2 0 0 0-2 2v.18a2 2 0 0 1-1 1.73l-.43.25a2 2 0 0 1-2 0l-.15-.08a2 2 0 0 0-2.73.73l-.22.38a2 2 0 0 0 .73 2.73l.15.1a2 2 0 0 1 1 1.72v.51a2 2 0 0 1-1 1.74l-.15.09a2 2 0 0 0-.73 2.73l.22.38a2 2 0 0 0 2.73.73l.15-.08a2 2 0 0 1 2 0l.43.25a2 2 0 0 1 1 1.73V20a2 2 0 0 0 2 2h.44a2 2 0 0 0 2-2v-.18a2 2 0 0 1 1-1.73l.43-.25a2 2 0 0 1 2 0l.15.08a2 2 0 0 0 2.73-.73l.22-.39a2 2 0 0 0-.73-2.73l-.15-.08a2 2 0 0 1-1-1.74v-.5a2 2 0 0 1 1-1.74l.15-.09a2 2 0 0 0 .73-2.73l-.22-.38a2 2 0 0 0-2.73-.73l-.15.08a2 2 0 0 1-2 0l-.43-.25a2 2 0 0 1-1-1.73V4a2 2 0 0 0-2-2z" stroke="url(#fluxGrad)" stroke-width="1.5" stroke-linecap="round" stroke-linejoin="round"/>
    <circle cx="12" cy="12" r="4.5" fill="url(#fluxGrad)" fill-opacity="0.15" stroke="url(#fluxGrad)" stroke-width="1.0" />
    <path d="M12 9v6M13.5 10.5c0-.8-.6-1.5-1.5-1.5s-1.5.7-1.5 1.5c0 1.7 3 1.3 3 3 0 .8-.6 1.5-1.5 1.5s-1.5-.7-1.5-1.5" stroke="url(#fluxGrad)" stroke-width="1.0" stroke-linecap="round" stroke-linejoin="round"/>
</svg>

